<svg width="120" height="120" viewBox="0 0 120 120" fill="none" xmlns="http://www.w3.org/2000/svg">
<path fill-rule="evenodd" clip-rule="evenodd" d="M51.027 80.2192C50.8815 80.2528 50.7358 80.2864 50.59 80.32C39.9215 82.7834 39.9523 88.2046 40.0068 97.8074C40.0137 99.0183 40.9967 100 42.2076 100H115.86C118.141 100 119.992 98.1556 120 95.875C120 87.47 119.34 82.615 109.41 80.32C109.177 80.2662 108.944 80.2125 108.711 80.1589C97.7322 77.6306 87.2256 75.211 92.44 65.595C108.22 36.495 96.94 20 80 20C63.39 20 51.83 35.885 67.56 65.595C72.6643 75.2309 62.3239 77.6148 51.027 80.2192ZM30.5885 89.9751C29.8281 95.4622 25.5117 100 19.9721 100H3.10502C1.39407 100 0.00552807 98.6159 0 96.905C0 90.6 0.495 86.96 7.945 85.24C8.05381 85.2149 8.16253 85.1898 8.27113 85.1648C16.7455 83.2101 24.496 81.4224 20.67 74.195C8.87 51.915 17.54 40 30 40C38.435 40 44.99 45.45 44.99 55.495C44.99 67.7478 41.6383 71.0765 38.1061 74.5843C35.0515 77.6178 31.8619 80.7855 30.5885 89.9751Z" fill="#A5A5AE"/>
</svg>
