<svg width="160" height="26" viewBox="0 0 160 26" fill="none" xmlns="http://www.w3.org/2000/svg">
<g style="mix-blend-mode:multiply">
<path d="M13.1796 7.17153C13.9297 6.42139 14.9472 5.99996 16.008 5.99996H44.6943C48.2579 5.99996 50.0426 10.3085 47.5227 12.8284L35.5227 24.8284C34.7726 25.5785 33.7552 26 32.6943 26H4.00802C0.4444 26 -1.34027 21.6914 1.17959 19.1715L13.1796 7.17153Z" fill="#5855E9"/>
</g>
<g style="mix-blend-mode:multiply">
<path d="M13.1796 1.17157C13.9297 0.421427 14.9472 0 16.008 0H44.6943C48.2579 0 50.0426 4.30857 47.5227 6.82843L35.5227 18.8284C34.7726 19.5786 33.7552 20 32.6943 20H4.00802C0.4444 20 -1.34027 15.6914 1.17959 13.1716L13.1796 1.17157Z" fill="#55E9AB"/>
</g>
<path d="M67.2996 6.7797L58.6802 6.8468C58.4906 6.8468 58.3447 6.77225 58.2426 6.62315C58.1551 6.45914 58.1041 6.28022 58.0895 6.08639C58.0749 5.89255 58.1114 5.71363 58.1989 5.54962C58.2864 5.3707 58.4322 5.26633 58.6364 5.23651L62.0054 5.21415V3.78278C62.0054 3.54422 62.1002 3.35784 62.2898 3.22365C62.4794 3.08946 62.6909 3.01491 62.9242 3C63.143 3 63.3472 3.05964 63.5368 3.17892C63.741 3.28329 63.8431 3.46967 63.8431 3.73805V5.21415H67.3214C67.4381 5.21415 67.5402 5.29615 67.6277 5.46016C67.7152 5.62417 67.7663 5.79564 67.7809 5.97456C67.7954 6.16839 67.7663 6.34731 67.6933 6.51132C67.6204 6.67533 67.4892 6.76479 67.2996 6.7797ZM61.896 9.23987C61.6335 9.25478 61.4147 9.2846 61.2397 9.32933C61.0793 9.35915 60.948 9.39642 60.846 9.44115C60.7147 9.5157 60.5907 9.64989 60.474 9.84372C60.3574 10.0376 60.299 10.2239 60.299 10.4029C60.299 10.5967 60.3574 10.8129 60.474 11.0514C60.6053 11.2751 60.7439 11.4093 60.8897 11.454C60.9918 11.5286 61.1303 11.5807 61.3054 11.6106C61.4804 11.6404 61.6846 11.6553 61.9179 11.6553H64.215C64.4046 11.6553 64.5723 11.6404 64.7181 11.6106C64.8786 11.5658 65.0244 11.5062 65.1557 11.4316C65.2577 11.3869 65.3817 11.2751 65.5276 11.0962C65.688 10.9023 65.7682 10.6936 65.7682 10.4699C65.7536 10.291 65.6661 10.0897 65.5057 9.86609C65.3453 9.62753 65.1994 9.47097 65.0681 9.39642C64.9369 9.35169 64.791 9.31442 64.6306 9.2846C64.4702 9.25478 64.3098 9.23987 64.1493 9.23987H61.896ZM64.74 7.69667C65.0171 7.69667 65.2869 7.74886 65.5494 7.85323C65.8265 7.94269 66.0818 8.07688 66.3151 8.2558C66.5339 8.43472 66.7454 8.73292 66.9495 9.15041C67.1537 9.55298 67.2704 9.95555 67.2996 10.3581C67.2996 10.8352 67.2048 11.2751 67.0152 11.6777C66.8402 12.0802 66.6579 12.3412 66.4683 12.4604C66.2495 12.7288 65.9578 12.9301 65.5932 13.0643C65.2432 13.1836 64.9077 13.2432 64.5869 13.2432H61.3272C60.9335 13.2432 60.598 13.191 60.3209 13.0867C60.0438 12.9674 59.8032 12.7959 59.599 12.5723C59.3802 12.3784 59.1833 12.0802 59.0083 11.6777C58.8479 11.2602 58.7677 10.8502 58.7677 10.4476C58.7531 10.0599 58.826 9.67971 58.9864 9.30696C59.1469 8.9193 59.3292 8.61364 59.5333 8.38999C59.7229 8.19616 59.9636 8.03961 60.2553 7.92032C60.5616 7.80104 60.9189 7.73395 61.3272 7.71904L64.74 7.69667ZM63.7337 15.9047C63.7337 15.9196 63.7337 15.9643 63.7337 16.0389C63.7337 16.1134 63.741 16.2103 63.7555 16.3296C63.7555 16.4638 63.7555 16.6204 63.7555 16.7993C63.7701 16.9633 63.7774 17.1497 63.7774 17.3584C63.7774 17.8057 63.7555 18.2306 63.7118 18.6332C63.6826 19.0209 63.6316 19.4085 63.5587 19.7962C63.4857 20.2137 63.3909 20.6163 63.2743 21.0039C63.1722 21.4065 63.0555 21.8016 62.9242 22.1893C62.8659 22.2638 62.7419 22.316 62.5523 22.3458C62.3773 22.3906 62.1804 22.3458 61.9617 22.2116C61.7137 22.1222 61.546 21.9954 61.4585 21.8314C61.3856 21.6823 61.3637 21.563 61.3929 21.4736C61.5095 21.1306 61.6116 20.8026 61.6991 20.4895C61.8012 20.1764 61.8742 19.8707 61.9179 19.5725C61.9617 19.3042 61.9908 19.0134 62.0054 18.7003C62.0346 18.3872 62.0492 18.0443 62.0492 17.6715V15.927C61.6991 15.9419 61.196 15.9569 60.5397 15.9718C59.898 15.9867 59.0958 15.9941 58.1332 15.9941C57.9728 16.009 57.8488 15.9494 57.7613 15.8152C57.6738 15.681 57.6301 15.4797 57.6301 15.2114C57.6009 14.9877 57.6301 14.8013 57.7176 14.6522C57.8051 14.5031 57.9364 14.4137 58.1114 14.3838C59.1614 14.3838 60.0365 14.3838 60.7366 14.3838C61.4366 14.3689 61.9617 14.354 62.3117 14.3391C62.618 14.354 62.9607 14.354 63.3399 14.3391C63.7191 14.3242 64.0983 14.3093 64.4775 14.2944C64.8567 14.2646 65.2067 14.2347 65.5276 14.2049C65.863 14.1751 66.1328 14.1378 66.337 14.0931C66.6433 14.0484 67.0298 13.9738 67.4965 13.8694C67.9777 13.7502 68.4809 13.5638 69.0059 13.3103C69.1372 13.2507 69.2612 13.2805 69.3779 13.3998C69.5091 13.5191 69.6112 13.6756 69.6841 13.8694C69.7425 14.0633 69.7643 14.2571 69.7498 14.4509C69.7498 14.6448 69.6914 14.7715 69.5747 14.8311C69.0497 15.0697 68.5538 15.2412 68.0871 15.3455C67.635 15.4499 67.2121 15.5319 66.8183 15.5916C66.3953 15.6959 65.8703 15.7779 65.2432 15.8376C64.616 15.8972 64.1129 15.9196 63.7337 15.9047ZM70.9311 21.9656L70.8655 4.63265C70.8655 4.49846 70.9384 4.39409 71.0842 4.31954C71.2447 4.23008 71.4488 4.17044 71.6968 4.14062C71.9301 4.14062 72.1197 4.1779 72.2656 4.25245C72.426 4.327 72.5281 4.43137 72.5718 4.56556L72.5937 21.9656C72.55 22.0998 72.4552 22.1967 72.3093 22.2564C72.1781 22.3309 71.9958 22.3682 71.7624 22.3682C71.5145 22.398 71.3103 22.3756 71.1499 22.3011C71.004 22.2265 70.9311 22.1147 70.9311 21.9656Z" fill="#22222D"/>
<path d="M80.3818 4.36427C80.5568 4.37918 80.6954 4.46864 80.7975 4.63265C80.8996 4.79666 80.9506 4.98304 80.9506 5.19178C80.9506 5.38561 80.8996 5.56453 80.7975 5.72854C80.6954 5.89255 80.535 5.97456 80.3162 5.97456C80.1849 5.97456 79.9953 5.97456 79.7474 5.97456C79.4995 5.97456 79.2369 5.97456 78.9598 5.97456C78.6827 5.97456 78.4275 5.97456 78.1942 5.97456C77.9608 5.97456 77.8004 5.97456 77.7129 5.97456C77.567 5.97456 77.4649 5.98947 77.4066 6.01929C77.3483 6.04911 77.3191 6.08639 77.3191 6.13112C77.3045 6.22058 77.2899 6.35477 77.2753 6.53369C77.2753 6.6977 77.2826 6.89153 77.2972 7.11518V11.9684C77.2972 12.1175 77.2972 12.2368 77.2972 12.3263C77.3118 12.4157 77.341 12.4828 77.3847 12.5275C77.3993 12.6021 77.4358 12.6617 77.4941 12.7065C77.5524 12.7512 77.6764 12.7586 77.866 12.7288C78.0118 12.7437 78.2525 12.7437 78.5879 12.7288C78.9234 12.699 79.2807 12.6543 79.6599 12.5946C80.0391 12.5499 80.4037 12.4903 80.7537 12.4157C81.1183 12.3412 81.4027 12.2666 81.6069 12.1921V6.3324C81.5632 5.90001 81.5705 5.54217 81.6288 5.25888C81.7017 4.97558 81.8111 4.78175 81.9569 4.67738C82.059 4.60283 82.1976 4.54319 82.3726 4.49846C82.5622 4.45373 82.7226 4.43137 82.8539 4.43137H87.4042C87.5792 4.44628 87.7178 4.53574 87.8199 4.69975C87.922 4.86376 87.973 5.04268 87.973 5.23651C87.973 5.43034 87.922 5.60926 87.8199 5.77327C87.7178 5.92237 87.5574 5.99692 87.3386 5.99692C87.2073 5.99692 86.9594 5.99692 86.5948 5.99692C86.2302 5.99692 85.851 5.99692 85.4572 5.99692C85.0488 5.99692 84.6769 5.99692 84.3415 5.99692C84.0061 5.99692 83.7946 5.99692 83.7071 5.99692C83.5466 5.99692 83.4373 6.01183 83.3789 6.04166C83.3206 6.07148 83.2914 6.10875 83.2914 6.15348C83.2768 6.24294 83.2623 6.37713 83.2477 6.55605C83.2477 6.72006 83.255 6.91389 83.2695 7.13755V11.9908C83.2695 12.1399 83.2695 12.2592 83.2695 12.3486C83.2841 12.4381 83.3133 12.5052 83.357 12.5499C83.3716 12.6245 83.4081 12.6841 83.4664 12.7288C83.5394 12.7736 83.6633 12.7885 83.8383 12.7736C83.9988 12.7885 84.2613 12.781 84.6259 12.7512C85.0051 12.7065 85.4062 12.6468 85.8291 12.5723C86.2375 12.5126 86.624 12.4455 86.9886 12.371C87.3678 12.2815 87.6449 12.1921 87.8199 12.1026C87.922 12.0579 88.0168 12.0877 88.1043 12.1921C88.1918 12.2815 88.2939 12.4232 88.4106 12.617C88.4981 12.8556 88.5418 13.0568 88.5418 13.2209C88.5564 13.37 88.5127 13.4743 88.4106 13.534C88.1626 13.6682 87.8418 13.7874 87.448 13.8918C87.0688 13.9813 86.6531 14.0633 86.201 14.1378C85.7343 14.1975 85.253 14.2497 84.7572 14.2944C84.2759 14.3242 83.8238 14.3317 83.4008 14.3167C83.0654 14.3018 82.781 14.2646 82.5476 14.2049C82.3143 14.1304 82.1465 14.0484 82.0444 13.9589C82.0007 13.944 81.9569 13.9216 81.9132 13.8918C81.8694 13.8471 81.8476 13.8098 81.8476 13.78C81.3225 13.944 80.6371 14.0782 79.7912 14.1826C78.9598 14.272 78.1723 14.3093 77.4285 14.2944C77.0784 14.2795 76.7868 14.2422 76.5534 14.1826C76.3346 14.108 76.1742 14.026 76.0721 13.9365C75.9263 13.8769 75.8096 13.7278 75.7221 13.4892C75.6492 13.2358 75.6127 12.9077 75.6127 12.5052V6.31004C75.5835 5.87764 75.5981 5.5198 75.6565 5.23651C75.7148 4.95322 75.8169 4.75939 75.9627 4.65502C76.0794 4.58047 76.2253 4.52083 76.4003 4.4761C76.5753 4.43137 76.7284 4.409 76.8597 4.409C76.9909 4.409 77.217 4.409 77.5379 4.409C77.8587 4.409 78.2087 4.40155 78.5879 4.38664C78.9525 4.38664 79.3026 4.38664 79.638 4.38664C79.9735 4.38664 80.2214 4.37918 80.3818 4.36427ZM89.57 17.6044H83.1602V22.7484C83.131 22.8528 83.0435 22.9199 82.8976 22.9497C82.7518 22.9944 82.5622 23.0093 82.3288 22.9944C82.0809 22.9944 81.8694 22.972 81.6944 22.9273C81.5194 22.8826 81.4319 22.808 81.4319 22.7037V17.6044C81.1402 17.6193 80.7318 17.6268 80.2068 17.6268C79.6964 17.6268 79.1349 17.6342 78.5223 17.6491C77.9098 17.6491 77.2826 17.6566 76.6409 17.6715C75.9992 17.6715 75.4231 17.6715 74.9127 17.6715C74.7668 17.6715 74.6574 17.5895 74.5845 17.4255C74.5262 17.2615 74.497 17.0751 74.497 16.8664C74.497 16.6725 74.5189 16.4936 74.5626 16.3296C74.621 16.1507 74.7085 16.0538 74.8251 16.0389C75.0585 16.0389 75.4304 16.0463 75.9409 16.0612C76.4659 16.0612 77.0712 16.0612 77.7566 16.0612C78.4421 16.0612 79.1859 16.0612 79.988 16.0612C80.8048 16.0612 81.6215 16.0612 82.4382 16.0612C83.255 16.0612 84.0571 16.0612 84.8447 16.0612C85.6322 16.0612 86.3469 16.0612 86.9886 16.0612C87.6303 16.0612 88.1772 16.0612 88.6293 16.0612C89.096 16.0612 89.4169 16.0538 89.5919 16.0389C89.7232 16.0389 89.818 16.1283 89.8763 16.3072C89.9346 16.4713 89.9638 16.6502 89.9638 16.844C89.9492 17.0378 89.9055 17.2168 89.8325 17.3808C89.7596 17.5448 89.6721 17.6193 89.57 17.6044Z" fill="#22222D"/>
<path d="M99.0645 14.4733H94.9079C94.7475 14.4733 94.5871 14.4658 94.4266 14.4509C94.2808 14.4211 94.1423 14.3838 94.011 14.3391C93.8214 14.2944 93.6756 14.19 93.5735 14.026C93.4714 13.8471 93.4203 13.6234 93.4203 13.355C93.4203 13.3252 93.4203 13.1314 93.4203 12.7736C93.4203 12.4157 93.4203 12.0206 93.4203 11.5882C93.4349 11.1558 93.4422 10.7532 93.4422 10.3805C93.4422 10.0077 93.4422 9.78408 93.4422 9.70953C93.4422 9.45606 93.4495 9.26223 93.4641 9.12804C93.4787 8.99385 93.537 8.83729 93.6391 8.65837C93.6828 8.52418 93.836 8.42727 94.0985 8.36763C94.361 8.30799 94.711 8.28562 95.1486 8.30053C95.2069 8.30053 95.5788 8.30799 96.2643 8.3229C96.9498 8.3229 97.7227 8.3229 98.5832 8.3229C99.4437 8.3229 100.268 8.3229 101.055 8.3229C101.857 8.3229 102.397 8.3229 102.674 8.3229C102.732 8.3229 102.791 8.3229 102.849 8.3229C102.922 8.30799 102.973 8.29308 103.002 8.27817C102.988 7.97996 102.98 7.68176 102.98 7.38356C102.98 7.08536 102.98 6.81698 102.98 6.57842C102.966 6.35477 102.951 6.16839 102.937 6.01929C102.922 5.87019 102.9 5.78073 102.871 5.75091C102.827 5.736 102.754 5.72109 102.652 5.70618C102.565 5.69127 102.448 5.68381 102.302 5.68381H93.8797C93.7339 5.69872 93.6245 5.62417 93.5516 5.46016C93.4787 5.29615 93.4349 5.10978 93.4203 4.90103C93.4203 4.7072 93.4495 4.52828 93.5078 4.36427C93.5808 4.18535 93.6828 4.09589 93.8141 4.09589H103.134C103.294 4.1108 103.433 4.13317 103.549 4.16299C103.666 4.1779 103.768 4.20772 103.855 4.25245C103.943 4.28227 104.016 4.31954 104.074 4.36427C104.147 4.39409 104.22 4.42391 104.293 4.45373C104.41 4.54319 104.49 4.69975 104.534 4.9234C104.592 5.13214 104.621 5.40052 104.621 5.72854V8.94912C104.607 9.15786 104.556 9.32187 104.468 9.44115C104.381 9.54552 104.278 9.62007 104.162 9.6648C104.031 9.72444 103.892 9.76917 103.746 9.79899C103.6 9.8139 103.462 9.82136 103.33 9.82136C102.864 9.82136 102.193 9.82136 101.318 9.82136C100.457 9.82136 99.5968 9.82881 98.7364 9.84372C97.8613 9.85863 97.0956 9.87354 96.4393 9.88845C95.783 9.88845 95.433 9.89591 95.3892 9.91082C95.2871 9.94064 95.2142 9.99282 95.1705 10.0674C95.1267 10.1419 95.1048 10.2538 95.1048 10.4029L95.0829 12.3486C95.0829 12.4679 95.0902 12.5574 95.1048 12.617C95.134 12.6617 95.1705 12.699 95.2142 12.7288C95.258 12.7736 95.309 12.8108 95.3673 12.8406C95.4403 12.8556 95.5424 12.8481 95.6736 12.8183L99.2176 12.7959C99.4802 12.781 99.7427 12.781 100.005 12.7959C100.268 12.7959 100.523 12.7959 100.771 12.7959C101.019 12.7959 101.259 12.7885 101.493 12.7736C101.741 12.7586 101.981 12.7214 102.215 12.6617C102.434 12.617 102.645 12.5797 102.849 12.5499C103.053 12.5052 103.25 12.4604 103.44 12.4157C103.629 12.371 103.812 12.3263 103.987 12.2815C104.176 12.2368 104.359 12.1846 104.534 12.125C104.694 12.0653 104.833 12.1026 104.949 12.2368C105.081 12.371 105.175 12.5424 105.234 12.7512C105.292 12.945 105.299 13.1463 105.256 13.355C105.226 13.5489 105.139 13.6682 104.993 13.7129C104.614 13.8471 104.249 13.9589 103.899 14.0484C103.549 14.1229 103.112 14.2049 102.587 14.2944C102.018 14.4137 101.383 14.4808 100.683 14.4957C99.9979 14.4957 99.4583 14.4882 99.0645 14.4733ZM106.59 17.6044H100.18V22.7484C100.151 22.8528 100.064 22.9199 99.9177 22.9497C99.7719 22.9944 99.5823 23.0093 99.3489 22.9944C99.101 22.9944 98.8895 22.972 98.7145 22.9273C98.5395 22.8826 98.452 22.808 98.452 22.7037V17.6044C98.1603 17.6193 97.7519 17.6268 97.2269 17.6268C96.7164 17.6268 96.1549 17.6342 95.5424 17.6491C94.9298 17.6491 94.3027 17.6566 93.661 17.6715C93.0192 17.6715 92.4432 17.6715 91.9327 17.6715C91.7869 17.6715 91.6775 17.5895 91.6046 17.4255C91.5462 17.2615 91.5171 17.0751 91.5171 16.8664C91.5171 16.6725 91.5389 16.4936 91.5827 16.3296C91.641 16.1507 91.7285 16.0538 91.8452 16.0389C92.0786 16.0389 92.4505 16.0463 92.9609 16.0612C93.486 16.0612 94.0912 16.0612 94.7767 16.0612C95.4621 16.0612 96.206 16.0612 97.0081 16.0612C97.8248 16.0612 98.6416 16.0612 99.4583 16.0612C100.275 16.0612 101.077 16.0612 101.865 16.0612C102.652 16.0612 103.367 16.0612 104.009 16.0612C104.65 16.0612 105.197 16.0612 105.649 16.0612C106.116 16.0612 106.437 16.0538 106.612 16.0389C106.743 16.0389 106.838 16.1283 106.896 16.3072C106.955 16.4713 106.984 16.6502 106.984 16.844C106.969 17.0378 106.926 17.2168 106.853 17.3808C106.78 17.5448 106.692 17.6193 106.59 17.6044Z" fill="#22222D"/>
<path d="M115.735 20.0646V7.78613L115.713 6.80207C115.713 6.72752 115.691 6.66788 115.647 6.62315C115.618 6.56351 115.567 6.51132 115.494 6.46659C115.363 6.45168 115.137 6.44423 114.816 6.44423C114.509 6.42932 114.159 6.42186 113.766 6.42186C113.372 6.42186 112.971 6.42932 112.562 6.44423C112.154 6.44423 111.789 6.43677 111.469 6.42186C111.294 6.42186 111.177 6.44423 111.119 6.48896C111.06 6.51878 111.031 6.57096 111.031 6.64551C111.016 6.76479 111.009 6.89153 111.009 7.02572C111.009 7.145 111.009 7.27174 111.009 7.40593C111.009 7.55503 111.009 7.8085 111.009 8.16634C111.009 8.50927 111.009 8.92675 111.009 9.41879C111.009 9.91082 111.009 10.4625 111.009 11.0738C111.009 11.6702 111.009 12.2964 111.009 12.9525C111.009 13.6085 111.009 14.272 111.009 14.943C111.024 15.6139 111.031 16.2625 111.031 16.8887C111.031 17.515 111.031 18.1114 111.031 18.6779C111.031 19.2296 111.038 19.7067 111.053 20.1093C111.126 20.1242 111.366 20.1317 111.775 20.1317C112.183 20.1317 112.643 20.1317 113.153 20.1317C113.649 20.1317 114.138 20.1242 114.619 20.1093C115.115 20.1093 115.487 20.0944 115.735 20.0646ZM117.419 20.5119C117.419 20.7206 117.404 20.8846 117.375 21.0039C117.346 21.1381 117.317 21.2425 117.288 21.317C117.229 21.4363 117.113 21.5109 116.938 21.5407C116.777 21.5854 116.58 21.6078 116.347 21.6078C116.26 21.6376 115.939 21.6525 115.385 21.6525C114.845 21.6674 114.261 21.6749 113.634 21.6749C112.993 21.6749 112.402 21.6749 111.862 21.6749C111.337 21.6749 111.046 21.6749 110.987 21.6749C110.608 21.7047 110.302 21.7047 110.068 21.6749C109.835 21.645 109.689 21.5854 109.631 21.4959C109.558 21.4065 109.492 21.2947 109.434 21.1605C109.39 21.0263 109.368 20.8474 109.368 20.6237C109.354 20.1764 109.339 19.6396 109.325 19.0134C109.325 18.3872 109.325 17.7162 109.325 17.0006C109.325 16.27 109.325 15.5245 109.325 14.764C109.325 13.9887 109.325 13.2209 109.325 12.4604C109.325 11.7149 109.325 11.0067 109.325 10.3358C109.325 9.64989 109.332 9.03113 109.347 8.47945C109.347 7.94269 109.347 7.49539 109.347 7.13755C109.347 6.7797 109.354 6.5486 109.368 6.44423C109.368 6.22058 109.368 6.01929 109.368 5.84037C109.383 5.66145 109.412 5.50489 109.456 5.3707C109.485 5.23651 109.587 5.13214 109.762 5.05759C109.937 4.96813 110.178 4.9234 110.484 4.9234C110.645 4.9234 111.002 4.9234 111.556 4.9234C112.125 4.9234 112.723 4.9234 113.35 4.9234C113.992 4.9234 114.59 4.93085 115.144 4.94576C115.698 4.94576 116.055 4.93831 116.216 4.9234C116.522 4.95322 116.763 5.02031 116.938 5.12469C117.113 5.22906 117.229 5.3707 117.288 5.54962C117.317 5.72854 117.339 5.90001 117.353 6.06402C117.383 6.22803 117.404 6.36968 117.419 6.48896V20.5119ZM120.744 21.5183L120.722 5.07996C120.722 4.94576 120.795 4.83394 120.941 4.74448C121.087 4.65502 121.291 4.60283 121.554 4.58792C121.772 4.58792 121.955 4.6252 122.101 4.69975C122.261 4.7743 122.363 4.87867 122.407 5.01286V12.0131C122.582 12.0131 122.772 12.0206 122.976 12.0355C123.194 12.0355 123.421 12.0355 123.654 12.0355C123.887 12.0355 124.135 12.0355 124.398 12.0355C124.675 12.0355 124.959 12.0355 125.251 12.0355C125.382 12.0504 125.477 12.1324 125.535 12.2815C125.594 12.4157 125.623 12.6021 125.623 12.8406C125.608 13.0941 125.564 13.288 125.492 13.4221C125.419 13.5563 125.331 13.6234 125.229 13.6234C124.923 13.6383 124.631 13.6532 124.354 13.6682C124.091 13.6682 123.843 13.6682 123.61 13.6682C123.377 13.6682 123.158 13.6682 122.954 13.6682C122.75 13.6682 122.567 13.6682 122.407 13.6682V21.5183C122.363 21.6525 122.268 21.7494 122.123 21.8091C121.977 21.8687 121.794 21.8985 121.576 21.8985C121.313 21.9283 121.109 21.906 120.963 21.8314C120.817 21.7718 120.744 21.6674 120.744 21.5183Z" fill="#22222D"/>
<path d="M133.017 4.36427C133.192 4.37918 133.331 4.46864 133.433 4.63265C133.535 4.79666 133.586 4.98304 133.586 5.19178C133.586 5.38561 133.535 5.56453 133.433 5.72854C133.331 5.89255 133.17 5.97456 132.951 5.97456C132.82 5.97456 132.631 5.97456 132.383 5.97456C132.135 5.97456 131.872 5.97456 131.595 5.97456C131.318 5.97456 131.063 5.97456 130.829 5.97456C130.596 5.97456 130.436 5.97456 130.348 5.97456C130.202 5.97456 130.1 5.98947 130.042 6.01929C129.984 6.04911 129.954 6.08639 129.954 6.13112C129.94 6.22058 129.925 6.35477 129.911 6.53369C129.911 6.6977 129.918 6.89153 129.932 7.11518V11.9684C129.932 12.1175 129.932 12.2368 129.932 12.3263C129.947 12.4157 129.976 12.4828 130.02 12.5275C130.035 12.6021 130.071 12.6617 130.129 12.7065C130.188 12.7512 130.312 12.7586 130.501 12.7288C130.647 12.7437 130.888 12.7437 131.223 12.7288C131.559 12.699 131.916 12.6543 132.295 12.5946C132.674 12.5499 133.039 12.4903 133.389 12.4157C133.754 12.3412 134.038 12.2666 134.242 12.1921V6.3324C134.198 5.90001 134.206 5.54217 134.264 5.25888C134.337 4.97558 134.446 4.78175 134.592 4.67738C134.694 4.60283 134.833 4.54319 135.008 4.49846C135.197 4.45373 135.358 4.43137 135.489 4.43137H140.04C140.215 4.44628 140.353 4.53574 140.455 4.69975C140.557 4.86376 140.608 5.04268 140.608 5.23651C140.608 5.43034 140.557 5.60926 140.455 5.77327C140.353 5.92237 140.193 5.99692 139.974 5.99692C139.843 5.99692 139.595 5.99692 139.23 5.99692C138.865 5.99692 138.486 5.99692 138.092 5.99692C137.684 5.99692 137.312 5.99692 136.977 5.99692C136.641 5.99692 136.43 5.99692 136.342 5.99692C136.182 5.99692 136.073 6.01183 136.014 6.04166C135.956 6.07148 135.927 6.10875 135.927 6.15348C135.912 6.24294 135.898 6.37713 135.883 6.55605C135.883 6.72006 135.89 6.91389 135.905 7.13755V11.9908C135.905 12.1399 135.905 12.2592 135.905 12.3486C135.919 12.4381 135.949 12.5052 135.992 12.5499C136.007 12.6245 136.043 12.6841 136.102 12.7288C136.175 12.7736 136.299 12.7885 136.474 12.7736C136.634 12.7885 136.897 12.781 137.261 12.7512C137.64 12.7065 138.041 12.6468 138.464 12.5723C138.873 12.5126 139.259 12.4455 139.624 12.371C140.003 12.2815 140.28 12.1921 140.455 12.1026C140.557 12.0579 140.652 12.0877 140.74 12.1921C140.827 12.2815 140.929 12.4232 141.046 12.617C141.133 12.8556 141.177 13.0568 141.177 13.2209C141.192 13.37 141.148 13.4743 141.046 13.534C140.798 13.6682 140.477 13.7874 140.083 13.8918C139.704 13.9813 139.288 14.0633 138.836 14.1378C138.37 14.1975 137.888 14.2497 137.392 14.2944C136.911 14.3242 136.459 14.3317 136.036 14.3167C135.701 14.3018 135.416 14.2646 135.183 14.2049C134.95 14.1304 134.782 14.0484 134.68 13.9589C134.636 13.944 134.592 13.9216 134.548 13.8918C134.505 13.8471 134.483 13.8098 134.483 13.78C133.958 13.944 133.272 14.0782 132.426 14.1826C131.595 14.272 130.808 14.3093 130.064 14.2944C129.714 14.2795 129.422 14.2422 129.189 14.1826C128.97 14.108 128.809 14.026 128.707 13.9365C128.562 13.8769 128.445 13.7278 128.357 13.4892C128.284 13.2358 128.248 12.9077 128.248 12.5052V6.31004C128.219 5.87764 128.233 5.5198 128.292 5.23651C128.35 4.95322 128.452 4.75939 128.598 4.65502C128.715 4.58047 128.861 4.52083 129.036 4.4761C129.211 4.43137 129.364 4.409 129.495 4.409C129.626 4.409 129.852 4.409 130.173 4.409C130.494 4.409 130.844 4.40155 131.223 4.38664C131.588 4.38664 131.938 4.38664 132.273 4.38664C132.609 4.38664 132.857 4.37918 133.017 4.36427ZM142.205 17.6044H135.795V22.7484C135.766 22.8528 135.679 22.9199 135.533 22.9497C135.387 22.9944 135.197 23.0093 134.964 22.9944C134.716 22.9944 134.505 22.972 134.33 22.9273C134.155 22.8826 134.067 22.808 134.067 22.7037V17.6044C133.775 17.6193 133.367 17.6268 132.842 17.6268C132.332 17.6268 131.77 17.6342 131.158 17.6491C130.545 17.6491 129.918 17.6566 129.276 17.6715C128.634 17.6715 128.058 17.6715 127.548 17.6715C127.402 17.6715 127.293 17.5895 127.22 17.4255C127.161 17.2615 127.132 17.0751 127.132 16.8664C127.132 16.6725 127.154 16.4936 127.198 16.3296C127.256 16.1507 127.344 16.0538 127.46 16.0389C127.694 16.0389 128.066 16.0463 128.576 16.0612C129.101 16.0612 129.706 16.0612 130.392 16.0612C131.077 16.0612 131.821 16.0612 132.623 16.0612C133.44 16.0612 134.257 16.0612 135.074 16.0612C135.89 16.0612 136.692 16.0612 137.48 16.0612C138.268 16.0612 138.982 16.0612 139.624 16.0612C140.266 16.0612 140.812 16.0612 141.265 16.0612C141.731 16.0612 142.052 16.0538 142.227 16.0389C142.358 16.0389 142.453 16.1283 142.512 16.3072C142.57 16.4713 142.599 16.6502 142.599 16.844C142.585 17.0378 142.541 17.2168 142.468 17.3808C142.395 17.5448 142.307 17.6193 142.205 17.6044Z" fill="#22222D"/>
<path d="M151.7 14.4733H147.543C147.383 14.4733 147.222 14.4658 147.062 14.4509C146.916 14.4211 146.778 14.3838 146.646 14.3391C146.457 14.2944 146.311 14.19 146.209 14.026C146.107 13.8471 146.056 13.6234 146.056 13.355C146.056 13.3252 146.056 13.1314 146.056 12.7736C146.056 12.4157 146.056 12.0206 146.056 11.5882C146.07 11.1558 146.077 10.7532 146.077 10.3805C146.077 10.0077 146.077 9.78408 146.077 9.70953C146.077 9.45606 146.085 9.26223 146.099 9.12804C146.114 8.99385 146.172 8.83729 146.274 8.65837C146.318 8.52418 146.471 8.42727 146.734 8.36763C146.996 8.30799 147.346 8.28562 147.784 8.30053C147.842 8.30053 148.214 8.30799 148.9 8.3229C149.585 8.3229 150.358 8.3229 151.218 8.3229C152.079 8.3229 152.903 8.3229 153.691 8.3229C154.493 8.3229 155.032 8.3229 155.309 8.3229C155.368 8.3229 155.426 8.3229 155.484 8.3229C155.557 8.30799 155.608 8.29308 155.638 8.27817C155.623 7.97996 155.616 7.68176 155.616 7.38356C155.616 7.08536 155.616 6.81698 155.616 6.57842C155.601 6.35477 155.587 6.16839 155.572 6.01929C155.557 5.87019 155.535 5.78073 155.506 5.75091C155.463 5.736 155.39 5.72109 155.288 5.70618C155.2 5.69127 155.083 5.68381 154.938 5.68381H146.515C146.369 5.69872 146.26 5.62417 146.187 5.46016C146.114 5.29615 146.07 5.10978 146.056 4.90103C146.056 4.7072 146.085 4.52828 146.143 4.36427C146.216 4.18535 146.318 4.09589 146.449 4.09589H155.769C155.929 4.1108 156.068 4.13317 156.185 4.16299C156.301 4.1779 156.403 4.20772 156.491 4.25245C156.578 4.28227 156.651 4.31954 156.71 4.36427C156.782 4.39409 156.855 4.42391 156.928 4.45373C157.045 4.54319 157.125 4.69975 157.169 4.9234C157.227 5.13214 157.256 5.40052 157.256 5.72854V8.94912C157.242 9.15786 157.191 9.32187 157.103 9.44115C157.016 9.54552 156.914 9.62007 156.797 9.6648C156.666 9.72444 156.527 9.76917 156.381 9.79899C156.236 9.8139 156.097 9.82136 155.966 9.82136C155.499 9.82136 154.828 9.82136 153.953 9.82136C153.093 9.82136 152.232 9.82881 151.372 9.84372C150.497 9.85863 149.731 9.87354 149.075 9.88845C148.418 9.88845 148.068 9.89591 148.025 9.91082C147.922 9.94064 147.849 9.99282 147.806 10.0674C147.762 10.1419 147.74 10.2538 147.74 10.4029L147.718 12.3486C147.718 12.4679 147.726 12.5574 147.74 12.617C147.769 12.6617 147.806 12.699 147.849 12.7288C147.893 12.7736 147.944 12.8108 148.003 12.8406C148.076 12.8556 148.178 12.8481 148.309 12.8183L151.853 12.7959C152.115 12.781 152.378 12.781 152.64 12.7959C152.903 12.7959 153.158 12.7959 153.406 12.7959C153.654 12.7959 153.895 12.7885 154.128 12.7736C154.376 12.7586 154.617 12.7214 154.85 12.6617C155.069 12.617 155.28 12.5797 155.484 12.5499C155.689 12.5052 155.886 12.4604 156.075 12.4157C156.265 12.371 156.447 12.3263 156.622 12.2815C156.812 12.2368 156.994 12.1846 157.169 12.125C157.329 12.0653 157.468 12.1026 157.585 12.2368C157.716 12.371 157.811 12.5424 157.869 12.7512C157.927 12.945 157.935 13.1463 157.891 13.355C157.862 13.5489 157.774 13.6682 157.628 13.7129C157.249 13.8471 156.885 13.9589 156.535 14.0484C156.185 14.1229 155.747 14.2049 155.222 14.2944C154.653 14.4137 154.019 14.4808 153.319 14.4957C152.633 14.4957 152.094 14.4882 151.7 14.4733ZM159.225 17.6044H152.815V22.7484C152.786 22.8528 152.699 22.9199 152.553 22.9497C152.407 22.9944 152.218 23.0093 151.984 22.9944C151.736 22.9944 151.525 22.972 151.35 22.9273C151.175 22.8826 151.087 22.808 151.087 22.7037V17.6044C150.796 17.6193 150.387 17.6268 149.862 17.6268C149.352 17.6268 148.79 17.6342 148.178 17.6491C147.565 17.6491 146.938 17.6566 146.296 17.6715C145.655 17.6715 145.078 17.6715 144.568 17.6715C144.422 17.6715 144.313 17.5895 144.24 17.4255C144.182 17.2615 144.152 17.0751 144.152 16.8664C144.152 16.6725 144.174 16.4936 144.218 16.3296C144.276 16.1507 144.364 16.0538 144.48 16.0389C144.714 16.0389 145.086 16.0463 145.596 16.0612C146.121 16.0612 146.726 16.0612 147.412 16.0612C148.097 16.0612 148.841 16.0612 149.643 16.0612C150.46 16.0612 151.277 16.0612 152.094 16.0612C152.91 16.0612 153.712 16.0612 154.5 16.0612C155.288 16.0612 156.002 16.0612 156.644 16.0612C157.286 16.0612 157.833 16.0612 158.285 16.0612C158.751 16.0612 159.072 16.0538 159.247 16.0389C159.379 16.0389 159.473 16.1283 159.532 16.3072C159.59 16.4713 159.619 16.6502 159.619 16.844C159.605 17.0378 159.561 17.2168 159.488 17.3808C159.415 17.5448 159.327 17.6193 159.225 17.6044Z" fill="#22222D"/>
</svg>
