<svg width="120" height="120" viewBox="0 0 120 120" fill="none" xmlns="http://www.w3.org/2000/svg">
<g clip-path="url(#clip0_44_402)">
<path fill-rule="evenodd" clip-rule="evenodd" d="M103.451 90.328C103.671 90.3786 103.89 90.4293 104.11 90.48C119.53 94.045 120.05 101.715 119.99 115.155L119.97 120H0.0199887L-1.13188e-05 115C-0.0500113 101.66 0.524989 94.03 15.89 90.48C16.2363 90.4 16.5825 90.3202 16.9285 90.2405C33.3884 86.447 49.1606 82.8119 41.34 68.39C17.68 24.745 34.59 0 60 0C84.915 0 102.26 23.83 78.66 68.39C71.009 82.8429 86.5098 86.4192 103.451 90.328ZM60.98 40.928H56.336C55.8306 37.5373 57.7276 35.3417 59.3891 33.4186C60.5678 32.0544 61.628 30.8273 61.628 29.408C61.628 27.572 60.44 26.456 58.568 26.456C56.984 26.456 55.724 27.248 54.536 28.472L51.62 25.772C53.492 23.648 56.048 22.172 59.18 22.172C63.536 22.172 66.704 24.404 66.704 29.048C66.704 31.5359 65.2203 33.2138 63.7593 34.866C62.2184 36.6085 60.7028 38.3224 60.98 40.928ZM61.988 47.048C61.988 49.028 60.548 50.504 58.676 50.504C56.768 50.504 55.4 49.028 55.4 47.048C55.4 45.068 56.768 43.628 58.676 43.628C60.548 43.628 61.988 45.068 61.988 47.048Z" fill="#A5A5AE"/>
</g>
<defs>
<clipPath id="clip0_44_402">
<rect width="120" height="120" rx="10" fill="white"/>
</clipPath>
</defs>
</svg>
