<svg width="59" height="59" viewBox="0 0 59 59" fill="none" xmlns="http://www.w3.org/2000/svg">
<path d="M48.5 0H10.5C7.71604 0.00264761 5.04686 1.10974 3.0783 3.0783C1.10974 5.04686 0.00264761 7.71604 0 10.5L0 48.5C0.00264761 51.284 1.10974 53.9531 3.0783 55.9217C5.04686 57.8903 7.71604 58.9974 10.5 59H48.5C51.284 58.9974 53.9531 57.8903 55.9217 55.9217C57.8903 53.9531 58.9974 51.284 59 48.5V10.5C58.9974 7.71604 57.8903 5.04686 55.9217 3.0783C53.9531 1.10974 51.284 0.00264761 48.5 0V0ZM10.5 5H48.5C49.9579 5.00264 51.3553 5.58295 52.3862 6.61383C53.417 7.64471 53.9974 9.04212 54 10.5V32.36L43.85 22.21C43.3724 21.7563 42.7388 21.5033 42.08 21.5033C41.4212 21.5033 40.7876 21.7563 40.31 22.21L27.44 35.08L20.94 28.59C20.7084 28.356 20.4328 28.1702 20.129 28.0434C19.8252 27.9166 19.4992 27.8513 19.17 27.8513C18.8408 27.8513 18.5148 27.9166 18.211 28.0434C17.9072 28.1702 17.6316 28.356 17.4 28.59L5 41V10.5C5.00264 9.04212 5.58295 7.64471 6.61383 6.61383C7.64471 5.58295 9.04212 5.00264 10.5 5V5Z" fill="#FDFDFF"/>
<path d="M27.28 21.8601C29.4892 21.8601 31.28 20.0692 31.28 17.8601C31.28 15.651 29.4892 13.8601 27.28 13.8601C25.0709 13.8601 23.28 15.651 23.28 17.8601C23.28 20.0692 25.0709 21.8601 27.28 21.8601Z" fill="#FDFDFF"/>
</svg>
