<svg width="59" height="59" viewBox="0 0 59 59" fill="none" xmlns="http://www.w3.org/2000/svg">
<g clip-path="url(#clip0_1339_267)">
<path d="M29.5 0C23.6655 0 17.9619 1.73014 13.1107 4.97165C8.25944 8.21315 4.47835 12.8204 2.24557 18.2108C0.0127819 23.6013 -0.571416 29.5327 0.566848 35.2552C1.70511 40.9776 4.51471 46.234 8.64036 50.3596C12.766 54.4853 18.0224 57.2949 23.7448 58.4332C29.4673 59.5714 35.3988 58.9872 40.7892 56.7544C46.1796 54.5217 50.7869 50.7406 54.0284 45.8893C57.2699 41.0381 59 35.3345 59 29.5C58.9894 21.6794 55.878 14.1821 50.348 8.65204C44.8179 3.12201 37.3207 0.0105827 29.5 0V0ZM32 41.5C32 42.163 31.7366 42.7989 31.2678 43.2678C30.7989 43.7366 30.1631 44 29.5 44C28.837 44 28.2011 43.7366 27.7322 43.2678C27.2634 42.7989 27 42.163 27 41.5V27.5C27 26.837 27.2634 26.2011 27.7322 25.7322C28.2011 25.2634 28.837 25 29.5 25C30.1631 25 30.7989 25.2634 31.2678 25.7322C31.7366 26.2011 32 26.837 32 27.5V41.5ZM32 18.67C32 19.333 31.7366 19.9689 31.2678 20.4378C30.7989 20.9066 30.1631 21.17 29.5 21.17C28.837 21.17 28.2011 20.9066 27.7322 20.4378C27.2634 19.9689 27 19.333 27 18.67V17.5C27 16.837 27.2634 16.2011 27.7322 15.7322C28.2011 15.2634 28.837 15 29.5 15C30.1631 15 30.7989 15.2634 31.2678 15.7322C31.7366 16.2011 32 16.837 32 17.5V18.67Z" fill="#797982"/>
</g>
<defs>
<clipPath id="clip0_1339_267">
<rect width="59" height="59" fill="white"/>
</clipPath>
</defs>
</svg>
